<svg version="1.1" id="Layer_1" xmlns:x="ns_extend;" xmlns:i="ns_ai;" xmlns:graph="ns_graphs;" xmlns="http://www.w3.org/2000/svg" xmlns:xlink="http://www.w3.org/1999/xlink" x="0px" y="0px" viewBox="0 0 141.7 46" style="enable-background:new 0 0 141.7 46;" xml:space="preserve">
 <style type="text/css">
  .st0{fill:#00ADDF;}
	.st1{fill:#232323;}
 </style>
 <metadata>
  <sfw xmlns="ns_sfw;">
   <slices>
   </slices>
   <sliceSourceBounds bottomLeftOrigin="true" height="46" width="141.7" x="150.9" y="-227">
   </sliceSourceBounds>
  </sfw>
 </metadata>
 <g>
  <path class="st0" d="M141.7,31.6h-2.4V11h2.4V31.6z M95.9,14.6c-0.5-0.8-0.8-1-2.2-1h-0.9c-1.4,0-1.6,0.2-2.2,1l-5.9,9.8h17.2
		L95.9,14.6z M109.1,31.6h-2.9l-2.9-4.8H83.5l-2.9,4.9h-2.9l11.3-18.8c0.7-1.2,1.2-1.8,3.2-1.8h2.5c1.8,0,2.5,0.5,3.3,1.8
		L109.1,31.6z M134.5,17.8c0,2.2-0.9,3-3.5,3h-18.3v-7.3H131c2.5,0,3.5,0.8,3.5,3.2V17.8z M131,11h-20.7v20.6h2.4v-8.4H131
		c4,0,5.9-1.6,5.9-5V16C136.9,12.6,135,11,131,11">
  </path>
  <path class="st1" d="M72.7,31.6h-2.4v-9.8c0-1.9-1-2.3-3.4-2.3H55.7v12.1h-2.4V17.1H67c4,0,5.7,1.4,5.7,4.7L72.7,31.6L72.7,31.6z
		 M50.9,31.6h-2.4V17.1h2.4V31.6z M50.9,14.6h-2.4V11h2.4V14.6z M46,13.5h-3.9c-2.2,0-3.4,0.7-3.4,2.5v1.2H46v2.3h-7.2v12.1h-2.4
		V16.3c0-3.3,1.8-5.2,5.3-5.2h4.4L46,13.5z">
  </path>
  <path class="st1" d="M15.7,42.1c-0.7,0.6-1.6,0.6-2.3,0l-9.5-9.6c-0.7-0.6-0.7-1.6,0-2.3l9.6-9.6c0.7-0.7,1.6-0.7,2.3,0l9.6,9.6
		c0.6,0.6,0.6,1.6,0,2.3L15.7,42.1z M15.7,17.3c-0.7-0.7-1.6-0.7-2.3,0l-12.9,13c-0.7,0.6-0.7,1.6,0,2.3l13,13
		c0.7,0.6,1.6,0.6,2.3,0l13-13c0.6-0.6,0.6-1.6,0-2.3L15.7,17.3z">
  </path>
  <path class="st0" d="M28.6,13.5l-13-13c-0.7-0.7-1.6-0.7-2.3,0l-12.9,13c-0.7,0.7-0.7,1.6,0,2.3l6.5,6.5l1.7-1.7l-4.8-4.8
		c-0.7-0.7-0.7-1.6,0-2.3l9.6-9.6c0.7-0.7,1.6-0.7,2.3,0l9.6,9.6c0.6,0.7,0.6,1.6,0,2.3l-9.6,9.5c-0.7,0.6-1.6,0.6-2.3,0L12,23.8
		l-1.7,1.7l3.1,3.1c0.7,0.6,1.6,0.6,2.3,0l13-13C29.2,15.1,29.2,14.1,28.6,13.5">
  </path>
 </g>
</svg>