<svg width="5508" height="1207" viewBox="0 0 5508 1207" fill="none" xmlns="http://www.w3.org/2000/svg">
<path fill-rule="evenodd" clip-rule="evenodd" d="M22.4511 0C10.0517 0 0 10.0517 0 22.4511V217.027C0 229.427 10.0517 239.478 22.4512 239.478H798.038C808.247 239.478 817.171 232.591 819.757 222.715L870.718 28.1393C874.444 13.9095 863.708 0 848.999 0H22.4511ZM228.431 1197.39H22.4511C10.0517 1197.39 0 1187.34 0 1174.94V501.408C0 489.009 10.0517 478.957 22.4511 478.957H723.558C738.268 478.957 749.003 492.867 745.276 507.096L694.315 701.672C691.729 711.548 682.805 718.434 672.597 718.434H273.333C260.934 718.434 250.882 728.486 250.882 740.886V1174.94C250.882 1187.34 240.83 1197.39 228.431 1197.39Z" fill="#FF5762"/>
<path fill-rule="evenodd" clip-rule="evenodd" d="M1254.72 0C1267.16 0 1277.25 10.0878 1277.25 22.5316V1174.86C1277.25 1187.3 1267.16 1197.39 1254.72 1197.39H1060.3C1047.86 1197.39 1037.77 1187.3 1037.77 1174.86V22.5315C1037.77 10.0877 1047.86 0 1060.3 0H1254.72Z" fill="#FF5762"/>
<path d="M2412.57 0H2611.68C2624.13 0 2634.22 10.0877 2634.22 22.5316V1174.84C2634.22 1187.28 2624.13 1197.37 2611.68 1197.37H2475.19C2461.76 1197.37 2449.04 1191.39 2440.49 1181.06L1860.58 481.077C1853.86 472.951 1840.65 477.711 1840.65 488.265V1174.86C1840.65 1187.3 1830.56 1197.39 1818.11 1197.39H1619C1606.55 1197.39 1596.48 1187.3 1596.48 1174.86V22.5315C1596.48 10.0877 1606.55 0 1619 0H1755.46C1768.89 0 1781.6 5.98074 1790.16 16.3146L2370.1 716.335C2376.83 724.462 2390.04 719.7 2390.04 709.148V22.5315C2390.04 10.0877 2400.12 0 2412.57 0Z" fill="#FF5762"/>
<path d="M4071.15 598.696C4071.15 929.346 3803.1 1197.39 3472.45 1197.39C3141.79 1197.39 2873.76 929.346 2873.76 598.696C2873.76 268.045 3141.79 0 3472.45 0C3803.1 0 4071.15 268.045 4071.15 598.696ZM3111.95 598.696C3111.95 797.794 3273.35 959.195 3472.45 959.195C3671.54 959.195 3832.95 797.794 3832.95 598.696C3832.95 399.597 3671.54 238.196 3472.45 238.196C3273.35 238.196 3111.95 399.597 3111.95 598.696Z" fill="#FF5762"/>
<path d="M5485.44 1197.39H5291.03C5278.59 1197.39 5268.5 1187.3 5268.5 1174.85V510.078C5268.5 499.28 5254.78 494.667 5248.25 503.273L4936.22 914.974C4922.7 932.817 4895.88 932.817 4882.35 914.974L4570.31 503.273C4563.79 494.667 4550.07 499.28 4550.07 510.078V1174.85C4550.07 1187.3 4539.98 1197.39 4527.53 1197.39H4333.12C4320.67 1197.39 4310.59 1187.3 4310.59 1174.85V23.184C4310.59 10.7771 4320.62 0.704693 4333.02 0.652631L4478.04 0.0441442C4485.12 0.0144141 4491.81 3.31909 4496.09 8.9657L4900.31 542.289C4904.81 548.236 4913.75 548.236 4918.26 542.289L5321.61 10.1153C5325.87 4.49516 5332.52 1.19351 5339.57 1.19351H5485.44C5497.89 1.19351 5507.98 11.2812 5507.98 23.7251V1174.85C5507.98 1187.3 5497.89 1197.39 5485.44 1197.39Z" fill="#FF5762"/>
</svg>
