<?xml version="1.0" encoding="UTF-8"?>
<svg version="1.1" xmlns="http://www.w3.org/2000/svg" width="600" height="229">
<path d="M0 0 C0.33 0.99 0.66 1.98 1 3 C1.639375 2.505 2.27875 2.01 2.9375 1.5 C7.02817911 -0.50359793 10.51756288 -0.77003893 15 0 C18.0625 2 18.0625 2 20 4 C20.804375 3.34 21.60875 2.68 22.4375 2 C26.39028613 -0.64770947 30.38137484 -0.72218502 35 0 C37.45132853 0.88247827 38.66551449 1.48343569 40.08984375 3.68310547 C41.24841584 6.63236758 41.32444827 9.13050567 41.4140625 12.296875 C41.47207031 14.10478516 41.47207031 14.10478516 41.53125 15.94921875 C41.5621875 17.20347656 41.593125 18.45773438 41.625 19.75 C41.68300781 21.65458984 41.68300781 21.65458984 41.7421875 23.59765625 C41.83644222 26.7316257 41.92205166 29.86558949 42 33 C43.32 33.66 44.64 34.32 46 35 C46 35.66 46 36.32 46 37 C39.73 37 33.46 37 27 37 C27 36.34 27 35.68 27 35 C27.66 34.67 28.32 34.34 29 34 C29 24.76 29 15.52 29 6 C27.68 5.67 26.36 5.34 25 5 C21.75150023 6.72226496 21.75150023 6.72226496 21 10 C20.90683834 11.67638254 20.8693076 13.35618841 20.8671875 15.03515625 C20.86589844 16.00904297 20.86460938 16.98292969 20.86328125 17.98632812 C20.86908203 19.5090332 20.86908203 19.5090332 20.875 21.0625 C20.87113281 22.08150391 20.86726563 23.10050781 20.86328125 24.15039062 C20.86457031 25.12298828 20.86585937 26.09558594 20.8671875 27.09765625 C20.86887939 28.43582397 20.86887939 28.43582397 20.87060547 29.80102539 C20.85770627 32.04366366 20.85770627 32.04366366 22 34 C22.99 34.33 23.98 34.66 25 35 C25 35.66 25 36.32 25 37 C18.73 37 12.46 37 6 37 C6 36.34 6 35.68 6 35 C6.99 35 7.98 35 9 35 C9.0246985 31.04900072 9.04285923 27.09803126 9.05493164 23.14697266 C9.06244036 21.14093449 9.0751447 19.13491798 9.08789062 17.12890625 C9.09111328 15.87207031 9.09433594 14.61523438 9.09765625 13.3203125 C9.10289307 12.15773926 9.10812988 10.99516602 9.11352539 9.79736328 C9.19356283 7.04497808 9.19356283 7.04497808 8 5 C5.56282742 5.27034634 5.56282742 5.27034634 3 6 C0.67108788 9.49336818 0.76448857 10.86007865 0.8046875 14.98046875 C0.81113281 16.14384766 0.81757813 17.30722656 0.82421875 18.50585938 C0.84097656 19.72080078 0.85773437 20.93574219 0.875 22.1875 C0.88402344 23.41404297 0.89304687 24.64058594 0.90234375 25.90429688 C0.92593983 28.93639295 0.95886159 31.96809938 1 35 C1.99 35 2.98 35 4 35 C4 35.66 4 36.32 4 37 C-2.27 37 -8.54 37 -15 37 C-15 36.34 -15 35.68 -15 35 C-13.515 34.505 -13.515 34.505 -12 34 C-11.92591413 29.90666095 -11.8714296 25.81358067 -11.83520508 21.71972656 C-11.82010642 20.32675378 -11.79962556 18.93382862 -11.77368164 17.54101562 C-11.73734878 15.54057115 -11.72188808 13.53978173 -11.70703125 11.5390625 C-11.6913208 10.33459473 -11.67561035 9.13012695 -11.65942383 7.88916016 C-11.77181396 6.9357373 -11.8842041 5.98231445 -12 5 C-12.99 4.34 -13.98 3.68 -15 3 C-15 2.34 -15 1.68 -15 1 C-13.06263299 0.83179449 -11.12510094 0.66548905 -9.1875 0.5 C-7.56908203 0.36078125 -7.56908203 0.36078125 -5.91796875 0.21875 C-3 0 -3 0 0 0 Z " fill="#E7D7A3" transform="translate(29,87)"/>
<path d="M0 0 C0 11.22 0 22.44 0 34 C5.10195585 29.60897923 5.10195585 29.60897923 10 25 C10 24.01 10 23.02 10 22 C8.68 21.34 7.36 20.68 6 20 C6 19.34 6 18.68 6 18 C11.61 18 17.22 18 23 18 C23 18.66 23 19.32 23 20 C21.13671875 21.40234375 21.13671875 21.40234375 18.6875 22.9375 C15.79977238 24.75569887 13.318436 26.48648525 11 29 C12.65299283 33.79931442 15.27740587 37.81914258 18 42.0625 C18.89749058 43.46899596 19.79337762 44.8765167 20.6875 46.28515625 C21.08324219 46.90269775 21.47898437 47.52023926 21.88671875 48.15649414 C23.02763364 50.04575913 24.01298339 52.02596677 25 54 C19.39 54 13.78 54 8 54 C8 53.34 8 52.68 8 52 C8.66 52 9.32 52 10 52 C9.4225 51.01257813 8.845 50.02515625 8.25 49.0078125 C7.499774 47.71367265 6.74978632 46.41939463 6 45.125 C5.6184375 44.47402344 5.236875 43.82304688 4.84375 43.15234375 C2 38.2265625 2 38.2265625 2 36 C1.34 36 0.68 36 0 36 C0.08678763 38.29239061 0.19495273 40.5839807 0.3125 42.875 C0.39951172 44.78925781 0.39951172 44.78925781 0.48828125 46.7421875 C0.65714844 47.81726563 0.82601562 48.89234375 1 50 C1.99 50.66 2.98 51.32 4 52 C4 52.66 4 53.32 4 54 C-2.27 54 -8.54 54 -15 54 C-15 53.34 -15 52.68 -15 52 C-13.515 51.505 -13.515 51.505 -12 51 C-10.85181175 48.7036235 -10.87330096 47.41002269 -10.87060547 44.85742188 C-10.86587723 43.57599304 -10.86587723 43.57599304 -10.86105347 42.26867676 C-10.8630777 41.34470093 -10.86510193 40.4207251 -10.8671875 39.46875 C-10.86623077 38.52189331 -10.86527405 37.57503662 -10.86428833 36.5994873 C-10.86360714 34.59545831 -10.8654572 32.59142711 -10.86962891 30.58740234 C-10.874978 27.5126451 -10.86968186 24.43803393 -10.86328125 21.36328125 C-10.86394204 19.41927051 -10.86522323 17.47525986 -10.8671875 15.53125 C-10.86516327 14.60727417 -10.86313904 13.68329834 -10.86105347 12.73132324 C-10.86420563 11.87703735 -10.86735779 11.02275146 -10.87060547 10.14257812 C-10.87140106 9.38916138 -10.87219666 8.63574463 -10.87301636 7.85949707 C-10.88646924 5.906031 -10.88646924 5.906031 -12 4 C-12.99 3.67 -13.98 3.34 -15 3 C-15 2.34 -15 1.68 -15 1 C-13.25021843 0.83105557 -11.50016388 0.66493691 -9.75 0.5 C-8.77546875 0.4071875 -7.8009375 0.314375 -6.796875 0.21875 C-4.53697847 0.04199832 -2.26679807 0 0 0 Z " fill="#CCA947" transform="translate(525,70)"/>
<path d="M0 0 C0.33 0.99 0.66 1.98 1 3 C1.639375 2.505 2.27875 2.01 2.9375 1.5 C7.04024327 -0.50950691 10.50564894 -0.74905851 15 0 C18.49890004 2.11391877 19.70578686 3.11736059 21 7 C21.15029988 9.06362991 21.24844448 11.13123915 21.31640625 13.19921875 C21.35830078 14.40771484 21.40019531 15.61621094 21.44335938 16.86132812 C21.48267578 18.12396484 21.52199219 19.38660156 21.5625 20.6875 C21.60568359 21.96173828 21.64886719 23.23597656 21.69335938 24.54882812 C21.7995486 27.69910852 21.90159533 30.84946839 22 34 C22.99 34.33 23.98 34.66 25 35 C25 35.66 25 36.32 25 37 C18.73 37 12.46 37 6 37 C6 36.34 6 35.68 6 35 C7.485 34.505 7.485 34.505 9 34 C9 24.76 9 15.52 9 6 C7.68 5.67 6.36 5.34 5 5 C2.63274878 6.49378593 2.63274878 6.49378593 1 9 C0.45191925 11.79630804 0.45191925 11.79630804 0.609375 14.859375 C0.62226563 15.97441406 0.63515625 17.08945313 0.6484375 18.23828125 C0.69871094 19.97658203 0.69871094 19.97658203 0.75 21.75 C0.77707031 23.51150391 0.77707031 23.51150391 0.8046875 25.30859375 C0.8518088 28.2065534 0.91758695 31.10286418 1 34 C2.485 34.495 2.485 34.495 4 35 C4 35.66 4 36.32 4 37 C-2.27 37 -8.54 37 -15 37 C-15 36.34 -15 35.68 -15 35 C-14.01 35 -13.02 35 -12 35 C-11.92592094 30.76419747 -11.87143304 26.52873659 -11.83520508 22.29248047 C-11.82010517 20.85100742 -11.79962342 19.40958041 -11.77368164 17.96826172 C-11.7373487 15.89799657 -11.72028671 13.82833793 -11.70703125 11.7578125 C-11.6913208 10.5114502 -11.67561035 9.26508789 -11.65942383 7.98095703 C-11.77181396 6.99724121 -11.8842041 6.01352539 -12 5 C-12.99 4.34 -13.98 3.68 -15 3 C-15 2.34 -15 1.68 -15 1 C-13.06263299 0.83179449 -11.12510094 0.66548905 -9.1875 0.5 C-7.56908203 0.36078125 -7.56908203 0.36078125 -5.91796875 0.21875 C-3 0 -3 0 0 0 Z " fill="#E2CE91" transform="translate(148,87)"/>
<path d="M0 0 C0.33 10.56 0.66 21.12 1 32 C2.32 32.33 3.64 32.66 5 33 C6.86246547 31.99691184 6.86246547 31.99691184 8 30 C8.46260898 27.32600882 8.46260898 27.32600882 8.3984375 24.30859375 C8.40230469 23.19935547 8.40617187 22.09011719 8.41015625 20.94726562 C8.39855469 19.78904297 8.38695312 18.63082031 8.375 17.4375 C8.38660156 16.27541016 8.39820313 15.11332031 8.41015625 13.91601562 C8.40435547 12.2540918 8.40435547 12.2540918 8.3984375 10.55859375 C8.39505371 9.54079834 8.39166992 8.52300293 8.38818359 7.47436523 C8.19603271 6.24955444 8.19603271 6.24955444 8 5 C7.01 4.34 6.02 3.68 5 3 C5 2.34 5 1.68 5 1 C9.95 0.67 14.9 0.34 20 0 C20.33 10.89 20.66 21.78 21 33 C22.32 33.66 23.64 34.32 25 35 C25 35.66 25 36.32 25 37 C20.05 37.33 15.1 37.66 10 38 C10 37.01 10 36.02 10 35 C9.21625 35.495 8.4325 35.99 7.625 36.5 C2.97581011 38.42380271 -1.02897065 38.7844506 -6 38 C-9.09799981 35.80873184 -9.80352112 34.58943664 -11 31 C-11.11514263 29.03205914 -11.17830395 27.06088005 -11.2109375 25.08984375 C-11.23929687 23.93548828 -11.26765625 22.78113281 -11.296875 21.59179688 C-11.34903851 19.15184867 -11.3932855 16.71171861 -11.4296875 14.27148438 C-11.460625 13.11841797 -11.4915625 11.96535156 -11.5234375 10.77734375 C-11.54325684 9.71765381 -11.56307617 8.65796387 -11.58349609 7.56616211 C-11.72094238 6.71932861 -11.85838867 5.87249512 -12 5 C-12.99 4.34 -13.98 3.68 -15 3 C-15 2.34 -15 1.68 -15 1 C-12.8750734 0.83240016 -10.75005624 0.66594799 -8.625 0.5 C-7.44164062 0.4071875 -6.25828125 0.314375 -5.0390625 0.21875 C-3.36213157 0.09804546 -1.68126944 0 0 0 Z " fill="#D1B157" transform="translate(442,87)"/>
<path d="M0 0 C0.33 0.99 0.66 1.98 1 3 C1.825 2.505 2.65 2.01 3.5 1.5 C7.92070266 -0.39458685 10.22083488 -0.53101835 15 0 C18.44312714 2.1244827 19.71617547 3.14852641 21 7 C21.15070797 9.13661258 21.2485966 11.27712124 21.31640625 13.41796875 C21.35830078 14.67158203 21.40019531 15.92519531 21.44335938 17.21679688 C21.48267578 18.52712891 21.52199219 19.83746094 21.5625 21.1875 C21.60570992 22.52279978 21.649325 23.85808652 21.69335938 25.19335938 C21.79956502 28.46213297 21.90160997 31.73098333 22 35 C22.99 35 23.98 35 25 35 C25 35.66 25 36.32 25 37 C19.06 37 13.12 37 7 37 C7 36.34 7 35.68 7 35 C7.99 34.505 7.99 34.505 9 34 C9 24.76 9 15.52 9 6 C7.68 5.67 6.36 5.34 5 5 C3.0418364 6.52301613 2.10886989 7.78226023 1 10 C0.73327184 13.64003111 0.76846282 17.28878599 0.75 20.9375 C0.729375 21.95263672 0.70875 22.96777344 0.6875 24.01367188 C0.68234375 24.98755859 0.6771875 25.96144531 0.671875 26.96484375 C0.6625293 27.8580835 0.65318359 28.75132324 0.64355469 29.67163086 C1.07005209 32.45759366 1.9398673 33.17545674 4 35 C4 35.66 4 36.32 4 37 C-2.27 37 -8.54 37 -15 37 C-15 36.34 -15 35.68 -15 35 C-13.68 34.34 -12.36 33.68 -11 33 C-10.97108454 28.54168018 -10.95323019 24.08338431 -10.9375 19.625 C-10.92912109 18.35398437 -10.92074219 17.08296875 -10.91210938 15.7734375 C-10.90888672 14.56171875 -10.90566406 13.35 -10.90234375 12.1015625 C-10.89710693 10.98088379 -10.89187012 9.86020508 -10.88647461 8.70556641 C-10.81378534 6.03132657 -10.81378534 6.03132657 -12 4 C-12.99 3.67 -13.98 3.34 -15 3 C-15 2.34 -15 1.68 -15 1 C-12.8750734 0.83240016 -10.75005624 0.66594799 -8.625 0.5 C-7.44164062 0.4071875 -6.25828125 0.314375 -5.0390625 0.21875 C-3.36213157 0.09804546 -1.68126944 0 0 0 Z " fill="#D4B863" transform="translate(377,87)"/>
<path d="M0 0 C0.33 0.99 0.66 1.98 1 3 C1.825 2.505 2.65 2.01 3.5 1.5 C8.2698591 -0.54422533 12.33747968 -0.91086221 17.375 0.8125 C19 2 19 2 21 5 C21.30297852 7.78735352 21.30297852 7.78735352 21.37890625 11.12890625 C21.41306641 12.32837891 21.44722656 13.52785156 21.48242188 14.76367188 C21.50884766 16.01728516 21.53527344 17.27089844 21.5625 18.5625 C21.62225744 21.04306949 21.68585991 23.5235503 21.75390625 26.00390625 C21.77783447 27.10549072 21.8017627 28.2070752 21.82641602 29.34204102 C21.82575224 31.9748166 21.82575224 31.9748166 23 34 C23.99 34.33 24.98 34.66 26 35 C26 35.66 26 36.32 26 37 C19.73 37 13.46 37 7 37 C7 36.34 7 35.68 7 35 C7.48895752 34.59160889 7.97791504 34.18321777 8.48168945 33.76245117 C10.7145459 31.17055687 10.34049131 29.17488278 10.29296875 25.80078125 C10.28330078 24.59228516 10.27363281 23.38378906 10.26367188 22.13867188 C10.23853516 20.87603516 10.21339844 19.61339844 10.1875 18.3125 C10.17396484 17.03826172 10.16042969 15.76402344 10.14648438 14.45117188 C10.11108199 11.30035943 10.0616979 8.15038955 10 5 C7.69 5.33 5.38 5.66 3 6 C0.40377109 10.90512814 0.73893751 15.72783594 0.8125 21.125 C0.8134668 22.48431641 0.8134668 22.48431641 0.81445312 23.87109375 C0.83317184 29.01716455 0.83317184 29.01716455 2 34 C2.66 34.33 3.32 34.66 4 35 C4 35.66 4 36.32 4 37 C-2.27 37 -8.54 37 -15 37 C-15 36.34 -15 35.68 -15 35 C-13.68 34.34 -12.36 33.68 -11 33 C-10.97108454 28.54168018 -10.95323019 24.08338431 -10.9375 19.625 C-10.92912109 18.35398437 -10.92074219 17.08296875 -10.91210938 15.7734375 C-10.90888672 14.56171875 -10.90566406 13.35 -10.90234375 12.1015625 C-10.89710693 10.98088379 -10.89187012 9.86020508 -10.88647461 8.70556641 C-10.81378534 6.03132657 -10.81378534 6.03132657 -12 4 C-12.99 3.67 -13.98 3.34 -15 3 C-15 2.34 -15 1.68 -15 1 C-12.8750734 0.83240016 -10.75005624 0.66594799 -8.625 0.5 C-7.44164062 0.4071875 -6.25828125 0.314375 -5.0390625 0.21875 C-3.36213157 0.09804546 -1.68126944 0 0 0 Z " fill="#CEAC4D" transform="translate(483,87)"/>
<path d="M0 0 C3.0625 1.5625 3.0625 1.5625 5 4 C5.5 7.625 5.5 7.625 5 11 C2 13 2 13 -1.1875 12.625 C-2.115625 12.41875 -3.04375 12.2125 -4 12 C-5 5.25 -5 5.25 -5 3 C-6.91302307 6.26613695 -7.35674661 8.99445248 -7.625 12.75 C-7.69976562 13.73484375 -7.77453125 14.7196875 -7.8515625 15.734375 C-7.90054687 16.48203125 -7.94953125 17.2296875 -8 18 C-5.69 18 -3.38 18 -1 18 C-1 18.66 -1 19.32 -1 20 C-3.31 20 -5.62 20 -8 20 C-7.67 30.23 -7.34 40.46 -7 51 C-5.35 51.33 -3.7 51.66 -2 52 C-2 52.66 -2 53.32 -2 54 C-8.93 54 -15.86 54 -23 54 C-23 53.34 -23 52.68 -23 52 C-21.515 51.505 -21.515 51.505 -20 51 C-18.8992924 47.6978772 -18.79372928 45.05916721 -18.68359375 41.58203125 C-18.64169922 40.32841797 -18.59980469 39.07480469 -18.55664062 37.78320312 C-18.51732422 36.47287109 -18.47800781 35.16253906 -18.4375 33.8125 C-18.39429008 32.47720022 -18.350675 31.14191348 -18.30664062 29.80664062 C-18.20043498 26.53786703 -18.09839003 23.26901667 -18 20 C-19.65 20 -21.3 20 -23 20 C-23 19.34 -23 18.68 -23 18 C-21.35 18 -19.7 18 -18 18 C-18.0928125 16.205625 -18.0928125 16.205625 -18.1875 14.375 C-18.1875 9.43513317 -16.65775286 6.00311804 -13.5 2.1875 C-9.67800876 -0.83824306 -4.61559284 -0.5658345 0 0 Z " fill="#D3B55C" transform="translate(427,70)"/>
<path d="M0 0 C5.76209064 4.74525111 5.18238523 6.26646705 6.125 14.75 C-0.475 14.75 -7.075 14.75 -13.875 14.75 C-13.483125 16.668125 -13.09125 18.58625 -12.6875 20.5625 C-12.46707031 21.64144531 -12.24664062 22.72039062 -12.01953125 23.83203125 C-11.09484298 26.89699422 -11.09484298 26.89699422 -8.4921875 28.67578125 C-4.70791804 30.22902618 -2.5687376 29.28324957 1.125 27.75 C1.785 26.76 2.445 25.77 3.125 24.75 C4.115 24.75 5.105 24.75 6.125 24.75 C4.84732235 29.74455809 2.99588216 32.36297811 -0.875 35.75 C-4.80013052 37.71256526 -9.58587229 37.09188699 -13.875 36.75 C-18.0692739 35.05444247 -20.39783812 32.5084525 -22.875 28.75 C-25.63916682 21.42495792 -25.85983911 14.75367655 -22.85546875 7.57421875 C-20.86708413 3.8747143 -18.21164007 1.52970671 -14.625 -0.5625 C-9.57394599 -1.8252635 -4.8233821 -2.09712265 0 0 Z M-8.875 0.75 C-12.52275386 4.63309282 -13.46025633 7.46201818 -13.875 12.75 C-10.575 12.75 -7.275 12.75 -3.875 12.75 C-3.53547572 6.90710689 -3.53547572 6.90710689 -5.875 1.75 C-6.865 1.42 -7.855 1.09 -8.875 0.75 Z " fill="#E6D49E" transform="translate(101.875,88.25)"/>
<path d="M0 0 C2.81245611 1.46224133 4.68612033 2.89570852 6.36328125 5.59375 C6.92578125 8.28125 6.92578125 8.28125 6.92578125 15.28125 C0.65578125 15.28125 -5.61421875 15.28125 -12.07421875 15.28125 C-11.76484375 17.034375 -11.45546875 18.7875 -11.13671875 20.59375 C-10.96269531 21.57988281 -10.78867188 22.56601563 -10.609375 23.58203125 C-10.11675028 26.36314213 -10.11675028 26.36314213 -9.07421875 29.28125 C-4.11118175 30.40712368 -4.11118175 30.40712368 0.61328125 28.96875 C1.37640625 28.411875 2.13953125 27.855 2.92578125 27.28125 C4.25186947 26.60028578 5.58264726 25.92794414 6.92578125 25.28125 C6.82854506 29.36516981 5.93025694 31.78457575 3.11328125 34.65625 C-1.08468878 37.95217688 -5.06502843 38.01760335 -10.26171875 37.73828125 C-15.30022794 36.91952351 -17.94833376 34.83419482 -20.88671875 30.78125 C-24.06187267 24.09671544 -24.21813693 15.92654977 -21.94921875 8.90625 C-20.18760315 4.82097953 -17.71022005 2.78100089 -14.07421875 0.28125 C-9.4375355 -1.26431108 -4.68197832 -1.62238043 0 0 Z M-9.07421875 2.78125 C-11.86809168 6.27359116 -11.77949055 8.86032701 -12.07421875 13.28125 C-8.77421875 13.28125 -5.47421875 13.28125 -2.07421875 13.28125 C-2.17734375 11.858125 -2.28046875 10.435 -2.38671875 8.96875 C-2.44472656 8.16824219 -2.50273437 7.36773437 -2.5625 6.54296875 C-3.15894917 3.90675449 -3.9822585 2.94298706 -6.07421875 1.28125 C-7.35755208 1.18125 -7.35755208 1.18125 -9.07421875 2.78125 Z " fill="#DDC580" transform="translate(263.07421875,87.71875)"/>
<path d="M0 0 C5.76209064 4.74525111 5.18238523 6.26646705 6.125 14.75 C-0.475 14.75 -7.075 14.75 -13.875 14.75 C-13.4625 16.4825 -13.05 18.215 -12.625 20 C-12.39296875 20.97453125 -12.1609375 21.9490625 -11.921875 22.953125 C-10.73453658 26.12526795 -9.5370848 27.67564821 -6.875 29.75 C-1.56100338 29.75 1.28961732 28.35293525 5.125 24.75 C5.455 25.74 5.785 26.73 6.125 27.75 C3.80257242 32.0375586 1.72334304 34.98893245 -2.875 36.75 C-8.24764334 37.41541913 -12.48348549 37.44575726 -17.375 35 C-21.66219763 31.14152214 -23.72241277 28.2764924 -24.078125 22.38671875 C-24.09359375 21.08347656 -24.1090625 19.78023437 -24.125 18.4375 C-24.15078125 17.14199219 -24.1765625 15.84648438 -24.203125 14.51171875 C-23.79607517 9.84518317 -22.54683354 6.58292167 -19.375 3.10546875 C-13.46550738 -1.49593305 -7.0679255 -3.07301109 0 0 Z M-7.875 0.75 C-11.97209868 4.56360102 -11.97209868 4.56360102 -12.9375 9.875 C-12.916875 10.82375 -12.89625 11.7725 -12.875 12.75 C-9.575 12.75 -6.275 12.75 -2.875 12.75 C-3.143125 11.14125 -3.41125 9.5325 -3.6875 7.875 C-3.83832031 6.97007813 -3.98914063 6.06515625 -4.14453125 5.1328125 C-4.70551301 2.40587522 -4.70551301 2.40587522 -7.875 0.75 Z " fill="#CAA747" transform="translate(574.875,88.25)"/>
<path d="M0 0 C5.76209064 4.74525111 5.18238523 6.26646705 6.125 14.75 C-0.475 14.75 -7.075 14.75 -13.875 14.75 C-13.42125 16.503125 -12.9675 18.25625 -12.5 20.0625 C-12.24476563 21.04863281 -11.98953125 22.03476563 -11.7265625 23.05078125 C-10.95586826 25.9305816 -10.95586826 25.9305816 -8.875 28.75 C-5.32335023 29.8549577 -3.61543778 30.12021889 -0.25 28.4375 C0.53375 27.880625 1.3175 27.32375 2.125 26.75 C3.45108822 26.06903578 4.78186601 25.39669414 6.125 24.75 C5.62107061 29.15938215 4.1629639 31.53843816 1.125 34.75 C-3.5435448 37.65644763 -8.55401507 37.38234893 -13.875 36.75 C-19.02353681 34.1757316 -22.057008 31.20397599 -23.875 25.75 C-24.84096262 10.96334144 -24.84096262 10.96334144 -20.875 4.75 C-15.13258077 -1.22776428 -7.76751627 -3.37718099 0 0 Z M-7.875 0.75 C-11.97209868 4.56360102 -11.97209868 4.56360102 -12.9375 9.875 C-12.916875 10.82375 -12.89625 11.7725 -12.875 12.75 C-9.575 12.75 -6.275 12.75 -2.875 12.75 C-3.11626997 7.01133714 -3.11626997 7.01133714 -5.9375 2.25 C-6.576875 1.755 -7.21625 1.26 -7.875 0.75 Z " fill="#D7BC6B" transform="translate(353.875,88.25)"/>
<path d="M0 0 C5.76209064 4.74525111 5.18238523 6.26646705 6.125 14.75 C-0.475 14.75 -7.075 14.75 -13.875 14.75 C-13.42125 16.503125 -12.9675 18.25625 -12.5 20.0625 C-12.24476563 21.04863281 -11.98953125 22.03476563 -11.7265625 23.05078125 C-10.95586826 25.9305816 -10.95586826 25.9305816 -8.875 28.75 C-5.32335023 29.8549577 -3.61543778 30.12021889 -0.25 28.4375 C0.53375 27.880625 1.3175 27.32375 2.125 26.75 C3.45108822 26.06903578 4.78186601 25.39669414 6.125 24.75 C5.62107061 29.15938215 4.1629639 31.53843816 1.125 34.75 C-3.5435448 37.65644763 -8.55401507 37.38234893 -13.875 36.75 C-19.02353681 34.1757316 -22.057008 31.20397599 -23.875 25.75 C-24.02203064 23.31551182 -24.09605339 20.8762523 -24.125 18.4375 C-24.15078125 17.14199219 -24.1765625 15.84648438 -24.203125 14.51171875 C-23.79607517 9.84518317 -22.54683354 6.58292167 -19.375 3.10546875 C-13.46550738 -1.49593305 -7.0679255 -3.07301109 0 0 Z M-8.875 0.75 C-11.9650669 4.68281242 -13.40083422 7.77125936 -13.875 12.75 C-10.245 12.75 -6.615 12.75 -2.875 12.75 C-3.25881792 6.10230801 -3.25881792 6.10230801 -6.875 0.75 C-7.535 0.75 -8.195 0.75 -8.875 0.75 Z " fill="#DAC177" transform="translate(298.875,88.25)"/>
<path d="M0 0 C0.61875 0.33 1.2375 0.66 1.875 1 C1.875 0.34 1.875 -0.32 1.875 -1 C2.535 -1 3.195 -1 3.875 -1 C3.875 3.29 3.875 7.58 3.875 12 C2.885 12 1.895 12 0.875 12 C0.5346875 10.3603125 0.5346875 10.3603125 0.1875 8.6875 C-0.79081241 4.9311044 -0.79081241 4.9311044 -3.5 3.0625 C-6.27098493 1.74987149 -6.27098493 1.74987149 -10.125 2 C-9.9070642 6.25493697 -9.69826816 8.3912527 -6.7265625 11.546875 C-5.74429688 12.27390625 -4.76203125 13.0009375 -3.75 13.75 C4.67319432 20.10628911 4.67319432 20.10628911 5.75 24.875 C6.0072365 27.79570604 5.87129911 29.00925223 4.75 31.8125 C1.86889856 35.17378501 -0.18002013 36.83889474 -4.71875 37.21484375 C-8.50809915 37.26068265 -12.06805263 37.23004149 -15.78125 36.421875 C-18.26717521 35.78112052 -18.26717521 35.78112052 -21.125 37 C-21.125 32.05 -21.125 27.1 -21.125 22 C-20.135 22 -19.145 22 -18.125 22 C-17.135 25.63 -16.145 29.26 -15.125 33 C-12.26721967 33.68493373 -12.26721967 33.68493373 -9.125 34 C-8.135 33.34 -7.145 32.68 -6.125 32 C-6.54554102 27.09368806 -8.51720089 25.21564703 -12.125 22 C-13.02412109 21.27103516 -13.02412109 21.27103516 -13.94140625 20.52734375 C-20.27474865 15.35753816 -20.27474865 15.35753816 -21.125 11 C-20.98523754 7.01676982 -20.73910184 4.77786233 -18.25 1.625 C-13.15924811 -2.26792791 -5.88359152 -1.88274929 0 0 Z " fill="#DFC887" transform="translate(230.125,88)"/>
<path d="M0 0 C0.33 17.16 0.66 34.32 1 52 C1.99 52 2.98 52 4 52 C4 52.66 4 53.32 4 54 C-2.27 54 -8.54 54 -15 54 C-15 53.34 -15 52.68 -15 52 C-13.515 51.505 -13.515 51.505 -12 51 C-11.09668953 48.2900686 -10.87371115 46.7252603 -10.87060547 43.94335938 C-10.86587723 42.72694763 -10.86587723 42.72694763 -10.86105347 41.48596191 C-10.86408981 40.17806702 -10.86408981 40.17806702 -10.8671875 38.84375 C-10.86623077 37.94507202 -10.86527405 37.04639404 -10.86428833 36.1204834 C-10.86360795 34.22078379 -10.86545234 32.32108185 -10.86962891 30.42138672 C-10.87497915 27.51134018 -10.86967911 24.60144798 -10.86328125 21.69140625 C-10.86394206 19.84635383 -10.86522327 18.0013015 -10.8671875 16.15625 C-10.86516327 15.28432007 -10.86313904 14.41239014 -10.86105347 13.51403809 C-10.86420563 12.70309692 -10.86735779 11.89215576 -10.87060547 11.05664062 C-10.87140106 10.34399048 -10.87219666 9.63134033 -10.87301636 8.89709473 C-10.93499011 6.77475869 -10.93499011 6.77475869 -12 4 C-12.99 3.67 -13.98 3.34 -15 3 C-15 2.34 -15 1.68 -15 1 C-13.25021843 0.83105557 -11.50016388 0.66493691 -9.75 0.5 C-8.77546875 0.4071875 -7.8009375 0.314375 -6.796875 0.21875 C-4.53697847 0.04199832 -2.26679807 0 0 0 Z " fill="#DAC06F" transform="translate(323,70)"/>
<path d="M0 0 C0.33 11.55 0.66 23.1 1 35 C1.99 35 2.98 35 4 35 C4 35.66 4 36.32 4 37 C-2.27 37 -8.54 37 -15 37 C-15 36.34 -15 35.68 -15 35 C-13.515 34.505 -13.515 34.505 -12 34 C-11.92591413 29.90666095 -11.8714296 25.81358067 -11.83520508 21.71972656 C-11.82010642 20.32675378 -11.79962556 18.93382862 -11.77368164 17.54101562 C-11.73734878 15.54057115 -11.72188808 13.53978173 -11.70703125 11.5390625 C-11.6913208 10.33459473 -11.67561035 9.13012695 -11.65942383 7.88916016 C-11.77181396 6.9357373 -11.8842041 5.98231445 -12 5 C-12.99 4.34 -13.98 3.68 -15 3 C-15 2.34 -15 1.68 -15 1 C-13.06263299 0.83179449 -11.12510094 0.66548905 -9.1875 0.5 C-7.56908203 0.36078125 -7.56908203 0.36078125 -5.91796875 0.21875 C-3 0 -3 0 0 0 Z " fill="#E3D198" transform="translate(126,87)"/>
<path d="M0 0 C3.79165074 -0.0289337 7.58327327 -0.04677601 11.375 -0.0625 C12.45523438 -0.07087891 13.53546875 -0.07925781 14.6484375 -0.08789062 C16.1953125 -0.09272461 16.1953125 -0.09272461 17.7734375 -0.09765625 C18.72653809 -0.10289307 19.67963867 -0.10812988 20.66162109 -0.11352539 C23 0 23 0 25 1 C25 2.98 25 4.96 25 7 C16.75 7 8.5 7 0 7 C0 4.69 0 2.38 0 0 Z " fill="#D2BC7D" transform="translate(177,102)"/>
<path d="M0 0 C1.5675 -0.061875 3.135 -0.12375 4.75 -0.1875 C6.07257813 -0.23970703 6.07257813 -0.23970703 7.421875 -0.29296875 C10.60311749 0.06853608 11.85965881 0.60872226 14 3 C14.49609375 6.06640625 14.49609375 6.06640625 14.4375 9.5625 C14.43621094 10.71878906 14.43492187 11.87507812 14.43359375 13.06640625 C14.21896484 14.51853516 14.21896484 14.51853516 14 16 C9.43362969 19.04424687 5.43284541 18.12783166 0 18 C0 12.06 0 6.12 0 0 Z M3 3 C3 4.65 3 6.3 3 8 C7.14093698 8.20970559 7.14093698 8.20970559 11 7 C10.67 5.68 10.34 4.36 10 3 C7.69 3 5.38 3 3 3 Z M3 10 C3 11.65 3 13.3 3 15 C5.64 15 8.28 15 11 15 C11 13.68 11 12.36 11 11 C9.81575674 9.58422523 9.81575674 9.58422523 6.4375 9.9375 C4.7359375 9.9684375 4.7359375 9.9684375 3 10 Z " fill="#B89546" transform="translate(376,157)"/>
<path d="M0 0 C4.5532212 1.1383053 5.08509512 1.92387988 7.75 5.5625 C8.36359375 6.38878906 8.9771875 7.21507812 9.609375 8.06640625 C10.06828125 8.70449219 10.5271875 9.34257812 11 10 C11.33 7.03 11.66 4.06 12 1 C12.99 0.67 13.98 0.34 15 0 C15 5.94 15 11.88 15 18 C14.01 18 13.02 18 12 18 C9.95703125 15.8125 9.95703125 15.8125 7.8125 13 C7.09707031 12.071875 6.38164062 11.14375 5.64453125 10.1875 C4.83048828 9.1046875 4.83048828 9.1046875 4 8 C3.67 11.3 3.34 14.6 3 18 C2.01 18 1.02 18 0 18 C0 12.06 0 6.12 0 0 Z " fill="#B59347" transform="translate(149,157)"/>
<path d="M0 0 C9 0 9 0 13 2 C12.979375 3.134375 12.95875 4.26875 12.9375 5.4375 C12.58422523 8.81575674 12.58422523 8.81575674 14 10 C14.04080783 11.99958364 14.04254356 14.00045254 14 16 C10.78817851 17.90608098 8.46117397 18.22266247 4.75 18.125 C3.1825 18.08375 1.615 18.0425 0 18 C0 12.06 0 6.12 0 0 Z M2 3 C2 4.65 2 6.3 2 8 C4.31 8 6.62 8 9 8 C9.66 6.68 10.32 5.36 11 4 C8.04335481 2.5216774 5.25770263 2.93967217 2 3 Z M2 10 C2 11.65 2 13.3 2 15 C4.97 15 7.94 15 11 15 C10.67 13.35 10.34 11.7 10 10 C7.36 10 4.72 10 2 10 Z " fill="#B79445" transform="translate(444,157)"/>
<path d="M0 0 C9 0 9 0 12.125 2.1875 C14 5 14 5 13.875 7.625 C13.58625 8.40875 13.2975 9.1925 13 10 C11.7922442 13.62326739 12.45688872 14.64146369 14 18 C12.1875 17.75 12.1875 17.75 10 17 C8.5 15 8.5 15 7 13 C4.90584196 12.20376178 4.90584196 12.20376178 3 12 C3 13.98 3 15.96 3 18 C2.01 18 1.02 18 0 18 C0 12.06 0 6.12 0 0 Z M3 3 C3 5.31 3 7.62 3 10 C5.91652174 10.16681109 5.91652174 10.16681109 9 10 C9.66 9.34 10.32 8.68 11 8 C10.59471099 5.21762345 10.59471099 5.21762345 9 3 C7.00041636 2.95919217 4.99954746 2.95745644 3 3 Z " fill="#BA9646" transform="translate(346,157)"/>
<path d="M0 0 C5.40063434 2.70031717 7.41286678 6.17116682 11 11 C11.33 7.37 11.66 3.74 12 0 C12.99 0.33 13.98 0.66 15 1 C15 6.61 15 12.22 15 18 C10.2941188 16.8235297 9.60492246 15.69648124 6.75 11.9375 C5.69039062 10.55884766 5.69039062 10.55884766 4.609375 9.15234375 C4.07828125 8.44207031 3.5471875 7.73179687 3 7 C2.67 10.63 2.34 14.26 2 18 C1.34 18 0.68 18 0 18 C0 12.06 0 6.12 0 0 Z " fill="#BA9645" transform="translate(223,157)"/>
<path d="M0 0 C10.38461538 0 10.38461538 0 15 3 C16.59251643 6.18503287 16.39129761 9.5332405 16 13 C14.25746655 16.23613354 13.52814056 16.82395315 10 18 C8.27204648 18.06802967 6.54164635 18.08495645 4.8125 18.0625 C3.224375 18.041875 1.63625 18.02125 0 18 C0 12.06 0 6.12 0 0 Z M2 3 C2 6.96 2 10.92 2 15 C7.23880269 15.48821134 7.23880269 15.48821134 11.9375 13.75 C13.56997693 11.06725569 13.56997693 11.06725569 14 8 C12.6878339 5.08754352 12.6878339 5.08754352 10 3 C7.19757555 2.56762594 4.8601237 2.76165636 2 3 Z " fill="#B79446" transform="translate(304,157)"/>
<path d="M0 0 C3.96 0 7.92 0 12 0 C12.33 0.99 12.66 1.98 13 3 C9.7 3 6.4 3 3 3 C3 4.65 3 6.3 3 8 C5.97 8 8.94 8 12 8 C12 8.66 12 9.32 12 10 C9.03 10 6.06 10 3 10 C3 11.65 3 13.3 3 15 C6.3 15 9.6 15 13 15 C13 15.99 13 16.98 13 18 C8.71 18 4.42 18 0 18 C0 12.06 0 6.12 0 0 Z " fill="#B59448" transform="translate(119,157)"/>
<path d="M0 0 C3.3125 1 3.3125 1 5.3125 4 C5.125 7.0625 5.125 7.0625 4.3125 10 C0.84251271 12.31332486 -0.61259248 12.33957563 -4.6875 12 C-7.6875 10 -7.6875 10 -8.6875 7.6875 C-8.6875 5 -8.6875 5 -6.6875 2.125 C-3.6875 0 -3.6875 0 0 0 Z " fill="#E2CF96" transform="translate(121.6875,70)"/>
<path d="M0 0 C3.96 0 7.92 0 12 0 C12 0.99 12 1.98 12 3 C9.03 3 6.06 3 3 3 C3 4.65 3 6.3 3 8 C5.64 8 8.28 8 11 8 C11 8.66 11 9.32 11 10 C8.36 10 5.72 10 3 10 C3 11.65 3 13.3 3 15 C6.3 15 9.6 15 13 15 C13 15.99 13 16.98 13 18 C8.71 18 4.42 18 0 18 C0 12.06 0 6.12 0 0 Z " fill="#B99545" transform="translate(414,157)"/>
<path d="M0 0 C0.66 0 1.32 0 2 0 C2.33 2.64 2.66 5.28 3 8 C3.55429688 7.4225 4.10859375 6.845 4.6796875 6.25 C5.76636719 5.13625 5.76636719 5.13625 6.875 4 C7.59429687 3.2575 8.31359375 2.515 9.0546875 1.75 C11 0 11 0 13 0 C12.42647107 3.87132028 10.51295648 6.08172796 8 9 C8.433125 9.48210937 8.86625 9.96421875 9.3125 10.4609375 C9.869375 11.09257812 10.42625 11.72421875 11 12.375 C11.8353125 13.31472656 11.8353125 13.31472656 12.6875 14.2734375 C14 16 14 16 14 18 C10.74456771 17.65120368 9.98126893 16.97866739 7.75 14.4375 C7.1725 13.633125 6.595 12.82875 6 12 C5.01 12.33 4.02 12.66 3 13 C2.67 14.65 2.34 16.3 2 18 C1.01 18 0.02 18 -1 18 C-1.02684312 15.18743719 -1.04676188 12.37512759 -1.0625 9.5625 C-1.07087891 8.76005859 -1.07925781 7.95761719 -1.08789062 7.13085938 C-1.0965143 5.08704779 -1.0522815 3.04316098 -1 1 C-0.67 0.67 -0.34 0.34 0 0 Z " fill="#B69447" transform="translate(246,157)"/>
<path d="M0 0 C1.51400391 0.01740234 1.51400391 0.01740234 3.05859375 0.03515625 C4.07050781 0.04417969 5.08242188 0.05320313 6.125 0.0625 C7.29869141 0.07990234 7.29869141 0.07990234 8.49609375 0.09765625 C8.82609375 1.08765625 9.15609375 2.07765625 9.49609375 3.09765625 C6.19609375 3.09765625 2.89609375 3.09765625 -0.50390625 3.09765625 C-0.50390625 4.74765625 -0.50390625 6.39765625 -0.50390625 8.09765625 C2.46609375 8.09765625 5.43609375 8.09765625 8.49609375 8.09765625 C8.49609375 8.75765625 8.49609375 9.41765625 8.49609375 10.09765625 C5.52609375 10.09765625 2.55609375 10.09765625 -0.50390625 10.09765625 C-0.50390625 11.74765625 -0.50390625 13.39765625 -0.50390625 15.09765625 C2.79609375 15.09765625 6.09609375 15.09765625 9.49609375 15.09765625 C9.49609375 16.08765625 9.49609375 17.07765625 9.49609375 18.09765625 C5.53609375 18.09765625 1.57609375 18.09765625 -2.50390625 18.09765625 C-3.73467548 5.48227163 -3.73467548 5.48227163 -3.50390625 1.09765625 C-2.50390625 0.09765625 -2.50390625 0.09765625 0 0 Z " fill="#B89546" transform="translate(268.50390625,156.90234375)"/>
<path d="M0 0 C0.99 0 1.98 0 3 0 C3.33 4.29 3.66 8.58 4 13 C8.41196476 15.12379689 8.41196476 15.12379689 11 15 C11.33 10.05 11.66 5.1 12 0 C12.99 0 13.98 0 15 0 C15.10823773 2.24893954 15.18569645 4.49937575 15.25 6.75 C15.29640625 8.00296875 15.3428125 9.2559375 15.390625 10.546875 C15 14 15 14 13.203125 16.41796875 C9.969243 18.74017125 7.87708008 18.62310216 4 18 C1.11840333 15.24102446 0.07771458 13.66290537 -0.390625 9.66796875 C-0.34421875 8.51941406 -0.2978125 7.37085938 -0.25 6.1875 C-0.21390625 5.02605469 -0.1778125 3.86460937 -0.140625 2.66796875 C-0.07101563 1.34732422 -0.07101563 1.34732422 0 0 Z " fill="#B69447" transform="translate(200,157)"/>
<path d="M0 0 C5.61 0 11.22 0 17 0 C17 0.66 17 1.32 17 2 C15.13671875 3.40234375 15.13671875 3.40234375 12.6875 4.9375 C8.48251667 7.54323492 8.48251667 7.54323492 5 11 C5.23043864 13.65466049 5.23043864 13.65466049 6 16 C4.68 15.01 3.36 14.02 2 13 C-0.33524782 15.25740623 -2.18705073 17.2805761 -4 20 C-4 19.34 -4 18.68 -4 18 C-4.66 17.67 -5.32 17.34 -6 17 C-5.278125 16.31292969 -4.55625 15.62585938 -3.8125 14.91796875 C-2.884375 14.01691406 -1.95625 13.11585937 -1 12.1875 C-0.071875 11.29417969 0.85625 10.40085937 1.8125 9.48046875 C4.33071315 7.17620272 4.33071315 7.17620272 4 4 C2.68 3.34 1.36 2.68 0 2 C0 1.34 0 0.68 0 0 Z " fill="#C8A64A" transform="translate(531,88)"/>
<path d="M0 0 C3.96 0 7.92 0 12 0 C12 0.99 12 1.98 12 3 C8.7 3 5.4 3 2 3 C2 4.65 2 6.3 2 8 C4.97 8 7.94 8 11 8 C11 8.66 11 9.32 11 10 C8.03 10 5.06 10 2 10 C2 11.65 2 13.3 2 15 C5.3 15 8.6 15 12 15 C12 15.99 12 16.98 12 18 C8.04 18 4.08 18 0 18 C0 12.06 0 6.12 0 0 Z " fill="#B79446" transform="translate(327,157)"/>
<path d="M0 0 C3.96 0 7.92 0 12 0 C12 0.99 12 1.98 12 3 C9.03 3 6.06 3 3 3 C3 4.65 3 6.3 3 8 C5.64 8 8.28 8 11 8 C11 8.99 11 9.98 11 11 C8.36 11 5.72 11 3 11 C3 12.98 3 14.96 3 17 C2.01 17.33 1.02 17.66 0 18 C0 12.06 0 6.12 0 0 Z " fill="#B69548" transform="translate(182,157)"/>
<path d="M0 0 C0 15.84 0 31.68 0 48 C-0.33 48 -0.66 48 -1 48 C-1 32.49 -1 16.98 -1 1 C-1.99 1.495 -1.99 1.495 -3 2 C-5.3329866 2.04022391 -7.66706666 2.04320247 -10 2 C-9.83701416 2.56170898 -9.67402832 3.12341797 -9.50610352 3.70214844 C-8.97014902 6.13553181 -8.88638604 8.27622228 -8.90234375 10.765625 C-8.90556641 11.65507813 -8.90878906 12.54453125 -8.91210938 13.4609375 C-8.92048828 14.38132812 -8.92886719 15.30171875 -8.9375 16.25 C-8.94201172 17.18585938 -8.94652344 18.12171875 -8.95117188 19.0859375 C-8.96293082 21.39069041 -8.97936574 23.69531227 -9 26 C-9.33 26 -9.66 26 -10 26 C-10.02505615 25.44014404 -10.0501123 24.88028809 -10.07592773 24.3034668 C-10.19203745 21.76458695 -10.3146958 19.22606447 -10.4375 16.6875 C-10.47681641 15.80642578 -10.51613281 14.92535156 -10.55664062 14.01757812 C-10.61948242 12.74624023 -10.61948242 12.74624023 -10.68359375 11.44921875 C-10.72025146 10.66893311 -10.75690918 9.88864746 -10.79467773 9.0847168 C-10.94125263 6.80670899 -10.94125263 6.80670899 -12 4 C-12.99 3.67 -13.98 3.34 -15 3 C-15 2.34 -15 1.68 -15 1 C-13.25021843 0.83105557 -11.50016388 0.66493691 -9.75 0.5 C-8.77546875 0.4071875 -7.8009375 0.314375 -6.796875 0.21875 C-4.53697847 0.04199832 -2.26679807 0 0 0 Z " fill="#D6BF7B" transform="translate(323,70)"/>
<path d="M0 0 C2 2 2 2 2.22705078 4.98095703 C2.21134033 6.85050049 2.21134033 6.85050049 2.1953125 8.7578125 C2.1924826 9.42086395 2.18965271 10.08391541 2.18673706 10.76705933 C2.17553435 12.88655583 2.15043051 15.00563104 2.125 17.125 C2.11497028 18.56119182 2.10584441 19.99739025 2.09765625 21.43359375 C2.075595 24.95586628 2.04106494 28.47789203 2 32 C2.66 31.67 3.32 31.34 4 31 C6.0374763 30.77141886 8.08040303 30.58975722 10.125 30.4375 C11.22070312 30.35371094 12.31640625 30.26992187 13.4453125 30.18359375 C14.28835938 30.12300781 15.13140625 30.06242187 16 30 C16 30.66 16 31.32 16 32 C11.05 32.33 6.1 32.66 1 33 C1 32.01 1 31.02 1 30 C-0.98 30.66 -2.96 31.32 -5 32 C-5.66 31.01 -6.32 30.02 -7 29 C-6.195625 28.71125 -5.39125 28.4225 -4.5625 28.125 C-1.8673532 27.26737432 -1.8673532 27.26737432 -1 25 C-0.84655791 23.11527141 -0.75040429 21.22572126 -0.68359375 19.3359375 C-0.64169922 18.21445313 -0.59980469 17.09296875 -0.55664062 15.9375 C-0.51732422 14.761875 -0.47800781 13.58625 -0.4375 12.375 C-0.37272461 10.59996094 -0.37272461 10.59996094 -0.30664062 8.7890625 C-0.20032574 5.85949672 -0.09829358 2.92984412 0 0 Z " fill="#C7AD63" transform="translate(451,92)"/>
<path d="M0 0 C0.99 0 1.98 0 3 0 C3 4.95 3 9.9 3 15 C5.97 15 8.94 15 12 15 C12 15.99 12 16.98 12 18 C8.04 18 4.08 18 0 18 C0 12.06 0 6.12 0 0 Z " fill="#B99749" transform="translate(397,157)"/>
<path d="M0 0 C10.55808656 -0.3690205 10.55808656 -0.3690205 15 2 C15 1.34 15 0.68 15 0 C15.66 0 16.32 0 17 0 C17 4.29 17 8.58 17 13 C16.01 13 15.02 13 14 13 C13.6596875 11.3603125 13.6596875 11.3603125 13.3125 9.6875 C12.34290903 5.92910401 12.34290903 5.92910401 9.625 4.125 C7.38770924 3.1661611 5.35638936 2.54982418 3 2 C2.01 1.34 1.02 0.68 0 0 Z " fill="#D7C284" transform="translate(217,87)"/>
<path d="M0 0 C4.62 0 9.24 0 14 0 C14 0.99 14 1.98 14 3 C12.02 3 10.04 3 8 3 C8 7.95 8 12.9 8 18 C7.34 18 6.68 18 6 18 C6 13.05 6 8.1 6 3 C4.02 3 2.04 3 0 3 C0 2.01 0 1.02 0 0 Z " fill="#B89647" transform="translate(462,157)"/>
<path d="M0 0 C0.99 0 1.98 0 3 0 C3 5.94 3 11.88 3 18 C2.01 18 1.02 18 0 18 C0 12.06 0 6.12 0 0 Z " fill="#B99544" transform="translate(433,157)"/>
<path d="M0 0 C0.33 0 0.66 0 1 0 C1 1.98 1 3.96 1 6 C-2.21182149 7.90608098 -4.53882603 8.22266247 -8.25 8.125 C-9.14203125 8.10695312 -10.0340625 8.08890625 -10.953125 8.0703125 C-11.96632813 8.03550781 -11.96632813 8.03550781 -13 8 C-13 7.34 -13 6.68 -13 6 C-10.59454362 4.79727181 -9.05003047 4.89928528 -6.375 4.9375 C-5.14910156 4.95103516 -5.14910156 4.95103516 -3.8984375 4.96484375 C-2.95871094 4.98224609 -2.95871094 4.98224609 -2 5 C-1.67 4.01 -1.34 3.02 -1 2 C-0.67 1.34 -0.34 0.68 0 0 Z " fill="#B08F46" transform="translate(457,167)"/>
<path d="M0 0 C0.99 0.33 1.98 0.66 3 1 C2.67 6.61 2.34 12.22 2 18 C1.34 18 0.68 18 0 18 C0 12.06 0 6.12 0 0 Z " fill="#B89546" transform="translate(139,157)"/>
<path d="M0 0 C1.8871875 0.0309375 1.8871875 0.0309375 3.8125 0.0625 C3.8125 0.3925 3.8125 0.7225 3.8125 1.0625 C2.843125 1.18625 1.87375 1.31 0.875 1.4375 C-0.6409375 1.746875 -0.6409375 1.746875 -2.1875 2.0625 C-2.5175 2.7225 -2.8475 3.3825 -3.1875 4.0625 C-4.84822849 4.74382451 -6.515267 5.40992127 -8.1875 6.0625 C-8.8475 6.7225 -9.5075 7.3825 -10.1875 8.0625 C-10.5175 6.7425 -10.8475 5.4225 -11.1875 4.0625 C-7.47611183 1.11898524 -4.747758 -0.0778321 0 0 Z " fill="#CDB56C" transform="translate(388.1875,86.9375)"/>
<path d="M0 0 C0.66 0 1.32 0 2 0 C1.50168276 3.68754757 0.89932357 5.60490662 -2 8 C-4.475 7.01 -4.475 7.01 -7 6 C-6.21625 5.38125 -5.4325 4.7625 -4.625 4.125 C-2.03162353 2.10141339 -2.03162353 2.10141339 0 0 Z " fill="#CAB26C" transform="translate(358,113)"/>
<path d="M0 0 C0.99 0 1.98 0 3 0 C3.33 0.99 3.66 1.98 4 3 C5.32 2.34 6.64 1.68 8 1 C8.33 1.99 8.66 2.98 9 4 C6.03 6.475 6.03 6.475 3 9 C1.64560332 6.29120665 1.93498549 3.99066732 2 1 C1.34 0.67 0.68 0.34 0 0 Z " fill="#DBCA98" transform="translate(26,87)"/>
<path d="M0 0 C3.96 0 7.92 0 12 0 C12 0.99 12 1.98 12 3 C3.42857143 3.14285714 3.42857143 3.14285714 0 2 C0 1.34 0 0.68 0 0 Z " fill="#B2934B" transform="translate(414,157)"/>
<path d="M0 0 C5.61 0 11.22 0 17 0 C17 0.66 17 1.32 17 2 C13.04 1.67 9.08 1.34 5 1 C4.67 1.99 4.34 2.98 4 4 C2.68 3.34 1.36 2.68 0 2 C0 1.34 0 0.68 0 0 Z " fill="#BFA153" transform="translate(531,88)"/>
<path d="M0 0 C0.99 0.33 1.98 0.66 3 1 C3 6.61 3 12.22 3 18 C2.01 17.67 1.02 17.34 0 17 C0.66 17 1.32 17 2 17 C2 12.38 2 7.76 2 3 C1.34 3 0.68 3 0 3 C0 2.01 0 1.02 0 0 Z " fill="#AE9355" transform="translate(235,157)"/>
<path d="M0 0 C0.99 0 1.98 0 3 0 C3.33 0.99 3.66 1.98 4 3 C4.99 2.34 5.98 1.68 7 1 C7.33 2.32 7.66 3.64 8 5 C6.35 6.32 4.7 7.64 3 9 C2.8046875 6.94921875 2.609375 4.8984375 2.4140625 2.84765625 C2.27742187 2.23792969 2.14078125 1.62820312 2 1 C1.34 0.67 0.68 0.34 0 0 Z " fill="#D1BE87" transform="translate(145,87)"/>
<path d="M0 0 C1.4370809 -0.05422947 2.87475462 -0.09289723 4.3125 -0.125 C5.11300781 -0.14820312 5.91351563 -0.17140625 6.73828125 -0.1953125 C9 0 9 0 12 2 C9.375 3.1875 9.375 3.1875 6 4 C2.625 2.625 2.625 2.625 0 1 C0 0.67 0 0.34 0 0 Z " fill="#DECC99" transform="translate(90,87)"/>
<path d="M0 0 C4 4.75 4 4.75 4 7 C2.1875 6.8125 2.1875 6.8125 0 6 C-1.75 3.4375 -1.75 3.4375 -3 1 C-2.01 0.67 -1.02 0.34 0 0 Z " fill="#B59449" transform="translate(356,168)"/>
<path d="M0 0 C4.875 1.75 4.875 1.75 6 4 C4.88625 4.12375 3.7725 4.2475 2.625 4.375 C-1.03103677 4.6465813 -1.03103677 4.6465813 -3 7 C-3.33 6.01 -3.66 5.02 -4 4 C-2.68 2.68 -1.36 1.36 0 0 Z " fill="#C3A658" transform="translate(487,88)"/>
<path d="M0 0 C0.66 0.33 1.32 0.66 2 1 C2 1.99 2 2.98 2 4 C0.88625 4.309375 -0.2275 4.61875 -1.375 4.9375 C-4.7945155 5.82326483 -4.7945155 5.82326483 -7 7 C-5.55609075 3.19333016 -3.65047197 1.73397418 0 0 Z " fill="#DBCA96" transform="translate(55,87)"/>
<path d="M0 0 C-0.375 2.9375 -0.375 2.9375 -1 6 C-1.99 6.495 -1.99 6.495 -3 7 C-3.33 6.34 -3.66 5.68 -4 5 C-4.66 4.67 -5.32 4.34 -6 4 C-2.25 0 -2.25 0 0 0 Z " fill="#D5BF83" transform="translate(270,113)"/>
<path d="M0 0 C2.97 0 5.94 0 9 0 C8.34 0.66 7.68 1.32 7 2 C7.3185177 4.10820797 7.3185177 4.10820797 8 6 C7.38125 5.505 6.7625 5.01 6.125 4.5 C4.16119096 2.80777227 4.16119096 2.80777227 2 3 C2 2.34 2 1.68 2 1 C1.34 0.67 0.68 0.34 0 0 Z " fill="#CDB572" transform="translate(342,87)"/>
<path d="M0 0 C1.43655854 -0.08131463 2.8744483 -0.13933559 4.3125 -0.1875 C5.51326172 -0.23970703 5.51326172 -0.23970703 6.73828125 -0.29296875 C9 0 9 0 12 3 C9.03 3 6.06 3 3 3 C3 2.34 3 1.68 3 1 C2.01 0.67 1.02 0.34 0 0 Z " fill="#C6AC61" transform="translate(418,70)"/>
<path d="M0 0 C2 3 2 3 2 7 C1.67 7.66 1.34 8.32 1 9 C0.54625 8.360625 0.0925 7.72125 -0.375 7.0625 C-1.83921726 4.90297594 -1.83921726 4.90297594 -4 4 C-2.68 2.68 -1.36 1.36 0 0 Z " fill="#C0A356" transform="translate(535,95)"/>
<path d="M0 0 C0.99 0 1.98 0 3 0 C2.67 2.31 2.34 4.62 2 7 C1.34 7 0.68 7 0 7 C0 4.69 0 2.38 0 0 Z " fill="#B5954C" transform="translate(284,171)"/>
<path d="M0 0 C1.875 0.25 1.875 0.25 4 1 C5.25 3.0625 5.25 3.0625 6 5 C4.125 4.75 4.125 4.75 2 4 C0.75 1.9375 0.75 1.9375 0 0 Z " fill="#B9984D" transform="translate(254,170)"/>
<path d="M0 0 C-0.3125 1.875 -0.3125 1.875 -1 4 C-1.99 4.66 -2.98 5.32 -4 6 C-4.66 5.34 -5.32 4.68 -6 4 C-2.25 0 -2.25 0 0 0 Z " fill="#B0924D" transform="translate(259,157)"/>
</svg>
