<?xml version="1.0" ?>
<!DOCTYPE svg  PUBLIC '-//W3C//DTD SVG 1.0//EN'  'http://www.w3.org/TR/2001/REC-SVG-20010904/DTD/svg10.dtd'>
<!-- Uploaded to: SVG Repo, www.svgrepo.com, Generator: SVG Repo Mixer Tools -->
<svg fill="#000000" width="800px" height="800px" viewBox="0 0 100 100" version="1.0" xml:space="preserve" xmlns="http://www.w3.org/2000/svg" xmlns:xlink="http://www.w3.org/1999/xlink">
<g id="_x31_"/>
<g id="_x32_">
<path d="M49.7,88.1c-4.4,0-8.6-2.2-12-6.1c-1.8,0.9-3.7,1.4-5.6,1.4c-10.1,0-18-12.2-18-27.9c0-15.6,7.9-27.9,18-27.9   c2.5,0,5,0.8,7.3,2.4c2.3-2.1,4.8-3.5,7.5-4.1c0.9-0.2,1.9-0.3,2.9-0.3c2.6,0,5.1,0.7,7.4,2.2c1.1,0.7,2.1,1.5,3.1,2.4   c2.4-1.7,5-2.6,7.6-2.6c10.1,0,18,12.2,18,27.9c0,15.6-7.9,27.9-18,27.9c-2.1,0-4.1-0.5-6-1.6C58.4,85.9,54.2,88.1,49.7,88.1z    M38.2,77.4c0.6,0,1.2,0.3,1.6,0.8c2.8,3.8,6.4,5.9,9.9,5.9c3.6,0,7.2-2.2,10.1-6.1c0.6-0.9,1.9-1.1,2.8-0.5   c1.7,1.2,3.5,1.8,5.3,1.8c7.6,0,14-10.9,14-23.9c0-12.9-6.4-23.9-14-23.9c-2.2,0-4.4,0.9-6.4,2.8c-0.4,0.4-0.9,0.5-1.5,0.5   c-0.5,0-1-0.3-1.4-0.7c-1.1-1.3-2.3-2.3-3.5-3c-2.3-1.4-4.9-1.9-7.3-1.4c-2.4,0.5-4.7,1.9-6.7,4.2c-0.7,0.8-2,0.9-2.8,0.2   c-2-1.7-4-2.5-6.2-2.5c-7.6,0-14,10.9-14,23.9c0,12.9,6.4,23.9,14,23.9c1.7,0,3.4-0.5,5-1.6C37.4,77.5,37.8,77.4,38.2,77.4z    M42.6,52.2H30.2c-0.7,0-1.4-0.4-1.7-1c-0.4-0.6-0.4-1.4,0-2l6.2-10.7c0.4-0.6,1-1,1.7-1s1.4,0.4,1.7,1l6.2,10.7   c0.4,0.6,0.4,1.4,0,2C44,51.8,43.3,52.2,42.6,52.2z M33.7,48.2h5.4l-2.7-4.7L33.7,48.2z M70,52.2H57.6c-0.7,0-1.4-0.4-1.7-1   c-0.4-0.6-0.4-1.4,0-2l6.2-10.7c0.4-0.6,1-1,1.7-1s1.4,0.4,1.7,1l6.2,10.7c0.4,0.6,0.4,1.4,0,2C71.3,51.8,70.7,52.2,70,52.2z    M61.1,48.2h5.4l-2.7-4.7L61.1,48.2z M53.1,74.7c-0.5,0-1-0.2-1.3-0.5c-0.4-0.4-0.7-0.9-0.7-1.5v-3.1h-2.2v3.1   c0,0.6-0.2,1.1-0.7,1.5c-0.4,0.4-1,0.6-1.5,0.5c-9.3-0.8-15.8-5.1-15.8-10.3c0-3.8,3.2-7,8.8-8.9c0.6-0.2,1.3-0.1,1.8,0.3   c0.5,0.4,0.8,1,0.8,1.6v2.4h2.2V56c0-1,0.8-1.9,1.8-2c2.4-0.2,4.9-0.2,7.2,0c1,0.1,1.8,1,1.8,2v3.7h2.2v-2.4c0-0.6,0.3-1.3,0.8-1.6   c0.5-0.4,1.2-0.5,1.8-0.3c5.6,1.9,8.8,5.1,8.8,8.9c0,5.2-6.5,9.5-15.8,10.3C53.2,74.7,53.2,74.7,53.1,74.7z M46.9,65.6h6.2   c1.1,0,2,0.9,2,2v2.8c6.2-1,10-3.8,10-6.1c0-1.4-1.3-2.8-3.5-4v1.4c0,1.1-0.9,2-2,2h-6.2c-1.1,0-2-0.9-2-2v-3.8c-0.9,0-1.9,0-2.8,0   v3.8c0,1.1-0.9,2-2,2h-6.2c-1.1,0-2-0.9-2-2v-1.4c-2.2,1.2-3.5,2.6-3.5,4c0,2.3,3.8,5,10,6.1v-2.8C44.9,66.5,45.8,65.6,46.9,65.6z    M56.1,31.5c-0.4,0-0.7-0.1-1-0.3c-2.3-1.4-4.8-1.9-7.3-1.4c-0.8,0.2-1.6-0.1-2-0.7c-0.5-0.6-0.5-1.5-0.2-2.2l4.7-8.7   c2.1-3.9,6.1-6.3,10.5-6.3c2.3,0,4.2,1.9,4.2,4.2c0,0.7-0.2,1.4-0.5,2l-6.6,12.3c-0.3,0.5-0.7,0.8-1.2,1   C56.5,31.4,56.3,31.5,56.1,31.5z M50.8,25.6c1.5,0.1,3.1,0.5,4.5,1.1l5.6-10.5c0-0.1,0-0.1,0-0.1c0,0,0-0.2-0.2-0.2   c-2.9,0-5.6,1.6-7,4.2L50.8,25.6z"/>
</g>
<g id="_x33_"/>
<g id="_x34_"/>
<g id="_x35_"/>
<g id="_x36_"/>
<g id="_x37_"/>
<g id="_x38_"/>
<g id="_x39_"/>
<g id="_x31_0"/>
<g id="_x31_1"/>
<g id="_x31_2"/>
<g id="_x31_3"/>
<g id="_x31_4"/>
<g id="_x31_5"/>
<g id="_x31_6"/>
<g id="_x31_7"/>
<g id="_x31_8"/>
<g id="_x31_9"/>
<g id="_x32_0"/>
<g id="_x32_1"/>
<g id="_x32_2"/>
<g id="_x32_3"/>
</svg>