<?xml version="1.0" encoding="utf-8"?><!-- Uploaded to: SVG Repo, www.svgrepo.com, Generator: SVG Repo Mixer Tools -->
<svg version="1.1" id="Uploaded to svgrepo.com" xmlns="http://www.w3.org/2000/svg" xmlns:xlink="http://www.w3.org/1999/xlink" 
	 width="800px" height="800px" viewBox="0 0 32 32" xml:space="preserve">
<style type="text/css">
	.bentblocks_een{fill:#0B1719;}
	.st0{fill:#0B1719;}
</style>
<path class="bentblocks_een" d="M22.351,9.583C20.956,5.745,17.293,3,12.981,3C7.469,3,3,7.477,3,13c0,4.35,2.778,8.042,6.649,9.417
	C11.044,26.255,14.707,29,19.019,29C24.531,29,29,24.523,29,19C29,14.65,26.222,10.958,22.351,9.583z M5,13c0-4.411,3.58-8,7.981-8
	c4.471,0,7.981,3.68,7.981,8c0,3.781-2.717,7.17-6.561,7.866c-0.124-0.309-0.216-0.632-0.277-0.967C22.604,18.497,21.496,6,12.981,6
	c-3.859,0-6.987,3.134-6.987,7c0,2.405,1.211,4.525,3.055,5.785c-0.008,0.367-0.029,0.498,0.038,1.191C6.652,18.606,5,15.994,5,13z
	 M22.62,15.558c0.854,0.898,1.386,2.106,1.386,3.442c0,2.757-2.237,5-4.987,5c-1.318,0-2.509-0.525-3.401-1.364
	C19.035,21.699,21.713,18.994,22.62,15.558z M14.183,17.836c0.433-1.806,1.839-3.223,3.634-3.673
	C17.384,15.969,15.978,17.387,14.183,17.836z M16.382,9.364c-3.417,0.937-6.095,3.642-7.002,7.077
	C8.527,15.544,7.994,14.336,7.994,13c0-2.757,2.237-5,4.987-5C14.298,8,15.49,8.525,16.382,9.364z M19.019,27
	c-4.174,0-7.578-3.234-7.944-7.27c-0.061-0.672-0.056-1.256,0.087-2.086c0.566-3.302,3.152-5.915,6.437-6.51
	c0.124,0.309,0.216,0.632,0.277,0.967c-3.691,0.61-6.281,4.062-5.774,7.837C12.568,23.41,15.525,26,19.019,26
	c3.859,0,6.987-3.134,6.987-7c0-2.405-1.211-4.525-3.055-5.785c0.008-0.367,0.029-0.498-0.038-1.191C25.348,13.394,27,16.006,27,19
	C27,23.411,23.42,27,19.019,27z"/>
</svg>